# xmcd
#
# Track frame offsets: 
#        150
#        19824
#        42847
#        58636
#        74448
#        92484
#        107715
#        124228
#        139227
#        154623
#        168810
#        183672
#        198058
#        214502
#        228737
#        247527
#        264344
#        279199
#        294481
#        312649
#        329690
#
# Disc length: 4642 seconds
#
# Revision: 0
# Processed by: cddbd v1.5.1PL0 Copyright (c) Steve Scherf et al.
# Submitted via: ExactAudioCopy v0.95a3
#
DISCID=2b122015
DTITLE=Various Artist - Включи Весь Мир. Выпуск 2
DYEAR=2000
DGENRE=Pop
TTITLE0=Alizee - Moi... Lolita
TTITLE1=Ronan Keating - The Way You Make Me Feel (Dance Mix)
TTITLE2=Sonique - I Put A Speel On You (Video Edit)
TTITLE3=A-1 - Take On Me
TTITLE4=Nek - La Vita E (Eiffel 65 Remix)
TTITLE5=Shanks and Bigfoot - Sing-A-Long (Original Mix)
TTITLE6=Britney Spears - Stronger (Migsmix)
TTITLE7=Blit - How Deep Is Your Love (Radio Edit)
TTITLE8=Kim Lukas - All I Really Want (Single Mix)
TTITLE9=Baha Men - Who Let The Dogs Out (Eiffel 65 Mix)
TTITLE10=Le Pois - Sing Love (Extended Version)
TTITLE11=Billy More - Up and Down
TTITLE12=Bomfunk Mc's - Uprocking Beats
TTITLE13=Keith and Shane - Girl You Know It's True
TTITLE14=Madonna - Don't Tell Me (Radio Edit)
TTITLE15=Atc - Thinking Of You (Video Edit)
TTITLE16=S.O.A.P. - Soap Is In The Air (Radio Version)
TTITLE17=Peach - Anywhere (Radio Edit)
TTITLE18=No Mercy - Where Is The Love (Cool Mix)
TTITLE19=A-Teens - Up Side Down (Radio Remix)
TTITLE20=Earth Wind and Fire - Boogie Wonderland (Discomix 2001)
EXTD=
EXTT0=
EXTT1=
EXTT2=
EXTT3=
EXTT4=
EXTT5=
EXTT6=
EXTT7=
EXTT8=
EXTT9=
EXTT10=
EXTT11=
EXTT12=
EXTT13=
EXTT14=
EXTT15=
EXTT16=
EXTT17=
EXTT18=
EXTT19=
EXTT20=
PLAYORDER=
